<?xml version="1.0" encoding="UTF-8"?>
<svg version="1.1" xmlns="http://www.w3.org/2000/svg" width="3436" height="930">
<path d="M0 0 C1133.88 0 2267.76 0 3436 0 C3436 306.9 3436 613.8 3436 930 C2302.12 930 1168.24 930 0 930 C0 623.1 0 316.2 0 0 Z " fill="#FFFFFF" transform="translate(0,0)"/>
<path d="M0 0 C627.33 0 1254.66 0 1901 0 C1899.16792417 3.66415166 1897.07965378 6.83038601 1894.6875 10.125 C1894.03152832 11.03536011 1894.03152832 11.03536011 1893.36230469 11.96411133 C1892.41059229 13.28410516 1891.45757762 14.60316081 1890.50341797 15.92138672 C1888.97875193 18.0293774 1887.45953566 20.14120418 1885.94140625 22.25390625 C1879.76305056 30.84265183 1873.52005857 39.38120889 1867.23364258 47.89111328 C1861.09126792 56.2143588 1855.04233081 64.60399195 1849 73 C1841.79936792 83.00550398 1834.55749214 92.97688478 1827.23291016 102.89208984 C1821.09080366 111.21502749 1815.04209317 119.60432215 1809 128 C1801.79936792 138.00550398 1794.55749214 147.97688478 1787.23291016 157.89208984 C1781.09080366 166.21502749 1775.04209317 174.60432215 1769 183 C1761.79877656 193.0063257 1754.55744101 202.97939506 1747.23071289 212.89428711 C1743.28592959 218.23835616 1739.38037592 223.60901545 1735.5 229 C1731.03979047 235.19654414 1726.53740365 241.35976023 1722 247.5 C1715.26446941 256.61748366 1708.62136363 265.79940769 1702 275 C1694.79936792 285.00550398 1687.55749214 294.97688478 1680.23291016 304.89208984 C1674.09080366 313.21502749 1668.04209317 321.60432215 1662 330 C1654.55648196 340.34300163 1647.07422569 350.65395346 1639.49243164 360.89624023 C1638.93418701 361.65106689 1638.37594238 362.40589355 1637.80078125 363.18359375 C1637.30747314 363.84931396 1636.81416504 364.51503418 1636.3059082 365.20092773 C1525.70871522 517.56411993 1632.33619916 741.72847161 1632 930 C1093.44 930 554.88 930 0 930 C0 623.1 0 316.2 0 0 Z " fill="#FFFFFF" transform="translate(0,0)"/>
<path d="M0 0 C3.24911274 2.93544174 6.42850503 5.93893923 9.58203125 8.9765625 C10.41178467 9.77344482 10.41178467 9.77344482 11.25830078 10.58642578 C18.58210378 17.65819082 25.30372716 24.9451543 31.58203125 32.9765625 C32.46210816 34.06756417 33.34368892 35.157354 34.2265625 36.24609375 C81.49353157 94.88243767 97.16205902 170.04039494 89.58203125 243.9765625 C82.96067008 298.56140867 60.3354396 349.08855045 23.58203125 389.9765625 C22.86635986 390.77682861 22.86635986 390.77682861 22.13623047 391.59326172 C13.77035102 400.92257124 5.26160122 409.82816471 -4.546875 417.6640625 C-7.4746703 420.02223232 -10.31648044 422.4644618 -13.16796875 424.9140625 C-19.89050974 430.51185404 -27.01338297 435.32940888 -34.41796875 439.9765625 C-35.07394043 440.3890625 -35.72991211 440.8015625 -36.40576172 441.2265625 C-88.83624061 473.86016959 -153.31436592 486.44440834 -214.41796875 477.9765625 C-215.31999023 477.85297363 -216.22201172 477.72938477 -217.15136719 477.60205078 C-261.55792365 471.26155077 -303.30996569 452.79409659 -338.41796875 424.9765625 C-339.32417969 424.26242187 -340.23039063 423.54828125 -341.1640625 422.8125 C-347.18832899 417.97599669 -352.90746939 412.86555284 -358.5625 407.609375 C-361.08100774 405.28724885 -363.64104616 403.03117714 -366.23046875 400.7890625 C-369.63279459 397.77696758 -372.63767078 394.61037175 -375.5625 391.13671875 C-376.87432442 389.60947895 -378.23098674 388.12022206 -379.6171875 386.66015625 C-392.2584011 373.32683111 -402.26967877 357.84923657 -411.41796875 341.9765625 C-411.81467773 341.29303711 -412.21138672 340.60951172 -412.62011719 339.90527344 C-441.84053286 288.98386173 -450.88219533 223.75410913 -442.41796875 165.9765625 C-442.2890625 165.079375 -442.16015625 164.1821875 -442.02734375 163.2578125 C-434.41277078 111.92995026 -413.39223868 62.85458029 -377.41796875 24.9765625 C-376.34905558 23.73204216 -375.28622052 22.48226726 -374.23046875 21.2265625 C-365.20686258 10.88034739 -355.25159601 1.39427569 -344.41796875 -7.0234375 C-343.3524746 -7.88854515 -342.28875757 -8.75584486 -341.2265625 -9.625 C-268.0421579 -69.06159118 -158.412272 -82.48406164 0 0 Z " fill="#FFFFFF" transform="translate(958.41796875,161.0234375)"/>
<path d="M0 0 C0.81986389 0.00060425 1.63972778 0.0012085 2.48443604 0.00183105 C15.10754223 0.02705819 27.55277973 0.35814293 40.0625 2.1875 C40.96500488 2.31640625 41.86750977 2.4453125 42.79736328 2.578125 C86.78964449 9.06104005 128.50654666 25.82355435 163.27001953 53.74902344 C164.82342099 54.99563763 166.39275848 56.22234442 167.96484375 57.4453125 C185.17467024 71.05789706 200.43617794 86.94025259 213.69189453 104.38867188 C215.04131063 106.15969037 216.40886418 107.9155692 217.77734375 109.671875 C225.62303166 119.88902354 232.01759154 130.82682769 238.0625 142.1875 C238.53719727 143.07937012 239.01189453 143.97124023 239.50097656 144.89013672 C252.56545138 169.84987454 260.4858479 196.45698841 265.0625 224.1875 C265.23894043 225.24308105 265.41538086 226.29866211 265.59716797 227.38623047 C270.36295882 257.46880916 270.16863372 290.17339691 265.0625 320.1875 C264.80509033 321.7346167 264.80509033 321.7346167 264.54248047 323.31298828 C256.98234741 367.46443558 238.81586771 409.66065506 210.0625 444.1875 C209.39202637 445.00226807 209.39202637 445.00226807 208.70800781 445.83349609 C191.35624005 466.90171519 191.35624005 466.90171519 181.03515625 475.52734375 C178.74934692 477.45104467 176.57035737 479.47378734 174.375 481.5 C121.98459533 528.61941884 52.44569718 547.74992951 -16.9375 545.1875 C-76.86434678 541.93462016 -133.60678631 517.20423266 -177.49609375 476.4453125 C-179.58438422 474.51406147 -181.70841534 472.6543194 -183.875 470.8125 C-193.14770629 462.71788344 -201.34684881 453.86492815 -208.9375 444.1875 C-209.81907781 443.09535637 -210.70194681 442.00425404 -211.5859375 440.9140625 C-239.55596683 406.21544058 -256.74706255 365.09577312 -263.9375 321.1875 C-264.08703125 320.32962891 -264.2365625 319.47175781 -264.390625 318.58789062 C-269.60477191 287.55023163 -269.8443721 252.13437342 -263.9375 221.1875 C-263.74414062 220.13691406 -263.55078125 219.08632813 -263.3515625 218.00390625 C-254.64623621 171.95165546 -235.15190251 129.29783545 -203.9375 94.1875 C-203.44241943 93.60846924 -202.94733887 93.02943848 -202.43725586 92.43286133 C-197.33936842 86.49472058 -191.90273011 80.91180046 -186.375 75.375 C-185.89017151 74.88883209 -185.40534302 74.40266418 -184.90582275 73.90176392 C-177.34900294 66.34945239 -169.58365309 59.47059209 -160.9375 53.1875 C-160.02097656 52.46433594 -159.10445312 51.74117187 -158.16015625 50.99609375 C-113.33355906 15.85153859 -56.36872784 -0.07677145 0 0 Z " fill="#FFFFFF" transform="translate(2200.9375,95.8125)"/>
<path d="M0 0 C1.59415777 -0.01037024 3.18830563 -0.02236907 4.78244019 -0.0358429 C9.06005015 -0.06653196 13.33732106 -0.07217555 17.6150279 -0.07091117 C21.21709259 -0.07175077 24.81908713 -0.08405918 28.42112982 -0.09586078 C36.94160665 -0.12311047 45.46191069 -0.12860057 53.98242188 -0.12109375 C62.69455633 -0.11387581 71.40587712 -0.14717483 80.1178354 -0.20015115 C87.66253082 -0.24432864 95.20696735 -0.26061275 102.75178969 -0.25611526 C107.22899756 -0.25382326 111.70554842 -0.26149845 116.18262863 -0.2971859 C137.38821908 -0.45341416 155.91621538 0.90643854 176.26025391 7.56518555 C178.39362296 8.22728183 180.52784981 8.88662061 182.66293335 9.54316711 C221.53542794 21.53515955 258.84688907 40.80742734 290.609375 66.24780273 C292.71704515 67.92969982 294.86385545 69.55814924 297.01025391 71.19018555 C311.41861 82.46749503 324.68379493 94.91331735 337.63525391 107.81518555 C338.47967041 108.6549292 339.32408691 109.49467285 340.1940918 110.35986328 C345.0893774 115.26775685 349.76087301 120.2934587 354.26025391 125.56518555 C355.11748047 126.54100586 355.97470703 127.51682617 356.85791016 128.5222168 C403.69585321 182.78297174 432.96769941 249.81376863 441.57275391 320.87768555 C441.69499329 321.88572235 441.69499329 321.88572235 441.81970215 322.91412354 C443.64091211 338.20730403 444.47372773 353.42292198 444.44775391 368.81518555 C444.44681732 369.54607391 444.44588074 370.27696228 444.44491577 371.02999878 C444.28035353 431.05144349 431.40947626 489.31778755 403.26025391 542.56518555 C402.9002832 543.25322266 402.5403125 543.94125977 402.16943359 544.65014648 C390.85109517 566.14817707 376.85338244 585.96764849 361.26025391 604.56518555 C360.78652344 605.13060059 360.31279297 605.69601562 359.82470703 606.27856445 C354.44671625 612.67920406 349.0604644 618.96259491 343.04541016 624.7800293 C341.21478676 626.6106527 339.55400951 628.52418412 337.88525391 630.50268555 C334.54934397 634.37204054 330.88283245 637.71837178 327.04931641 641.08862305 C325.07581945 642.8409999 323.13883477 644.60570773 321.22119141 646.41674805 C314.14919716 653.08938518 306.84786448 659.27456423 299.10791016 665.15893555 C297.20368451 666.60824048 295.31014673 668.07083928 293.41650391 669.53393555 C278.7901435 680.75460391 263.27375249 690.45716531 247.26025391 699.56518555 C246.66631836 699.90614258 246.07238281 700.24709961 245.46044922 700.59838867 C201.42358131 725.69815587 150.48804113 738.97182301 100.26025391 743.56518555 C99.26453369 743.65944824 98.26881348 743.75371094 97.24291992 743.85083008 C85.95082687 744.79514604 74.6477548 744.80868958 63.32275391 744.81518555 C62.26189575 744.81586029 61.2010376 744.81653503 60.10803223 744.81723022 C42.31837991 744.79933016 24.89481244 744.09115643 7.26025391 741.56518555 C5.51687744 741.31575195 5.51687744 741.31575195 3.73828125 741.0612793 C-34.20923789 735.39041716 -70.37503871 723.49943944 -104.73974609 706.56518555 C-105.60921875 706.13737793 -106.47869141 705.70957031 -107.37451172 705.26879883 C-138.44746702 689.81202686 -167.55787827 669.30412601 -193.15771484 645.90112305 C-195.23187766 644.02464898 -197.33152895 642.1945029 -199.45068359 640.36987305 C-204.21581818 636.20713707 -208.70638827 631.79007804 -213.17724609 627.31518555 C-214.01618408 626.47616699 -214.85512207 625.63714844 -215.71948242 624.77270508 C-220.76915461 619.67627211 -225.51715225 614.53887763 -229.92333984 608.8737793 C-231.68342798 606.63676406 -233.54685617 604.58121871 -235.48974609 602.50268555 C-277.53051739 555.54047475 -300.61864185 491.10666975 -309.98974609 429.81518555 C-310.14088867 428.83686768 -310.29203125 427.8585498 -310.44775391 426.85058594 C-313.29825325 406.95339274 -314.11991737 387.0166767 -314.05224609 366.94018555 C-314.05042328 365.80831818 -314.04860046 364.67645081 -314.04672241 363.51028442 C-313.90259298 310.15469532 -303.24264341 259.05409899 -280.73974609 210.56518555 C-280.3577002 209.73390137 -279.9756543 208.90261719 -279.58203125 208.04614258 C-270.06653102 187.54586702 -258.11785241 168.01261894 -244.09375 150.28833008 C-242.73763883 148.56250379 -241.41267256 146.81674383 -240.09521484 145.0612793 C-235.65637766 139.16195415 -231.05436184 133.49963403 -226.04052734 128.0769043 C-224.13410429 125.99569882 -222.27152727 123.88964194 -220.41943359 121.76049805 C-210.78098619 110.71732974 -200.69153132 100.30347656 -189.73974609 90.56518555 C-188.85029297 89.73760742 -187.96083984 88.9100293 -187.04443359 88.05737305 C-179.9320999 81.44269536 -172.46759401 75.43370163 -164.73974609 69.56518555 C-164.02254395 69.01813965 -163.3053418 68.47109375 -162.56640625 67.9074707 C-127.34828241 41.15197263 -88.51092244 21.3919829 -46.30224609 8.25268555 C-45.29782471 7.93928223 -44.29340332 7.62587891 -43.25854492 7.30297852 C-28.65978105 2.87925397 -15.24294791 -0.0399056 0 0 Z M-121.73974609 171.56518555 C-122.56949951 172.36206787 -122.56949951 172.36206787 -123.41601562 173.17504883 C-129.90836197 179.44397058 -136.03660506 185.82205615 -141.64208984 192.9128418 C-143.01942355 194.65438665 -144.42779817 196.37191083 -145.86865234 198.0612793 C-156.86574516 210.98630609 -165.89385123 225.54746529 -173.73974609 240.56518555 C-174.33070068 241.68207764 -174.33070068 241.68207764 -174.93359375 242.8215332 C-207.46845964 305.0671922 -211.93275813 385.62583961 -191.44287109 452.3503418 C-182.80628526 479.88164745 -170.74019544 505.22443008 -153.73974609 528.56518555 C-153.32225098 529.14107422 -152.90475586 529.71696289 -152.47460938 530.31030273 C-146.92723792 537.90190587 -140.87458479 544.85908917 -134.42724609 551.69018555 C-132.3669182 553.89425725 -130.40287243 556.11116219 -128.48974609 558.44018555 C-125.94546889 561.45372426 -123.11283651 563.96008159 -120.10693359 566.5065918 C-117.81165859 568.50264779 -115.60748924 570.57749202 -113.40454102 572.67431641 C-96.57346113 588.59754893 -77.23233374 601.81554965 -56.73974609 612.56518555 C-55.92602539 612.99444336 -55.11230469 613.42370117 -54.27392578 613.8659668 C6.13679329 645.30581609 79.41161085 650.02867132 144.390625 630.49291992 C169.90752482 622.44075091 194.52635859 611.27833784 216.26025391 595.56518555 C217.29021484 594.8278418 218.32017578 594.09049805 219.38134766 593.33081055 C237.36888343 580.13839159 255.02769892 564.87053989 268.95556641 547.42456055 C270.48010294 545.53310166 272.03737336 543.66752281 273.62744141 541.83081055 C312.61019316 496.74532769 331.58635756 436.47238764 333.26025391 377.56518555 C333.30150391 376.27741211 333.34275391 374.98963867 333.38525391 373.6628418 C334.60430664 296.17680238 306.4791741 227.54789224 252.99072266 172.16674805 C246.4415198 165.4610796 239.64710925 159.35104892 232.26025391 153.56518555 C231.21567326 152.70907562 230.17277176 151.85091376 229.13134766 150.9909668 C154.82529421 90.21203245 43.2511102 79.8978858 -121.73974609 171.56518555 Z " fill="#F7883B" transform="translate(716.73974609375,-0.565185546875)"/>
<path d="M0 0 C1.58149738 -0.01091319 3.16298967 -0.02258679 4.74447632 -0.03495789 C9.02460182 -0.06533102 13.30467375 -0.08245461 17.58488488 -0.09517407 C20.27318812 -0.10329803 22.96147664 -0.11348058 25.64977074 -0.12418938 C34.10093038 -0.15689584 42.55205331 -0.18078721 51.00326759 -0.19300324 C60.68158132 -0.2071827 70.35915642 -0.25081349 80.03722602 -0.32050472 C87.56390689 -0.37278636 95.09038139 -0.39721546 102.61724061 -0.40182537 C107.08962238 -0.40518057 111.56125716 -0.41934498 116.03344154 -0.46310616 C137.62219075 -0.66304754 156.53203703 0.7615952 177.27612305 7.33813477 C178.85346483 7.8165497 180.43121606 8.29361842 182.00952148 8.7688446 C185.46668455 9.83589546 188.87027695 10.99315315 192.27612305 12.21313477 C193.47197021 12.63385254 194.66781738 13.05457031 195.89990234 13.48803711 C206.2990263 17.21332559 216.34613777 21.5102843 226.27612305 26.33813477 C226.96915527 26.67022949 227.6621875 27.00232422 228.3762207 27.34448242 C258.4697512 41.7982894 286.36041237 60.07824762 311.27612305 82.33813477 C312.15397461 83.11672852 313.03182617 83.89532227 313.9362793 84.69750977 C316.39651319 86.89651439 318.83831814 89.11430647 321.27612305 91.33813477 C322.24291992 92.21211914 323.2097168 93.08610352 324.20581055 93.98657227 C332.71415884 101.6996843 341.04419788 109.55771185 348.5144043 118.29907227 C350.47218043 120.56505706 352.49841253 122.7595697 354.52612305 124.96313477 C360.11133213 131.16366349 365.22409791 137.70143553 370.27612305 144.33813477 C370.96109863 145.23773926 370.96109863 145.23773926 371.65991211 146.15551758 C416.57753794 205.50297061 444.17821858 279.11944077 444.47924805 353.95922852 C444.48626236 355.12949081 444.49327667 356.29975311 444.50050354 357.50547791 C444.51791662 361.26223641 444.52435586 365.01883739 444.52612305 368.77563477 C444.52713516 370.69838226 444.52713516 370.69838226 444.52816772 372.65997314 C444.51273945 391.074413 444.24101484 409.12727619 441.27612305 427.33813477 C441.09919922 428.45559082 440.92227539 429.57304687 440.73999023 430.72436523 C430.12852389 496.12508656 403.11543943 557.40005914 359.27612305 607.33813477 C358.64319336 608.07032227 358.01026367 608.80250977 357.3581543 609.55688477 C355.67699917 611.49579136 353.97856997 613.41790142 352.27612305 615.33813477 C351.63441162 616.06468262 350.9927002 616.79123047 350.33154297 617.53979492 C344.81458643 623.73416188 339.09179783 629.67444472 333.21362305 635.52563477 C332.36735352 636.37577148 331.52108398 637.2259082 330.64916992 638.10180664 C325.68766581 643.05566001 320.62693482 647.80822097 315.27612305 652.33813477 C314.64085693 652.88010498 314.00559082 653.4220752 313.35107422 653.98046875 C255.60569204 702.94245527 186.43231945 733.12922726 111.27612305 742.33813477 C110.33881348 742.45672852 109.40150391 742.57532227 108.43579102 742.69750977 C75.72727494 746.63448322 40.84512528 746.16299779 8.27612305 741.33813477 C6.53226318 741.0807251 6.53226318 741.0807251 4.75317383 740.81811523 C-30.19270362 735.46500957 -63.69173105 725.27028597 -95.72387695 710.33813477 C-96.62525391 709.91838379 -97.52663086 709.49863281 -98.45532227 709.06616211 C-120.04594466 698.89238736 -140.60482489 686.62904049 -159.72387695 672.33813477 C-160.31587891 671.89630859 -160.90788086 671.45448242 -161.51782227 670.99926758 C-169.08627007 665.31975526 -176.4623775 659.4042037 -183.72387695 653.33813477 C-184.52994385 652.66959473 -184.52994385 652.66959473 -185.35229492 651.98754883 C-193.78270096 644.97864635 -201.68473989 637.60803662 -209.33666992 629.75805664 C-212.21255171 626.81435223 -215.12964871 623.91465422 -218.08325195 621.04907227 C-223.59725896 615.66120267 -228.63455684 610.08287541 -233.39575195 604.02124023 C-234.89811649 602.11732459 -236.42085595 600.23047705 -237.94262695 598.34204102 C-250.02149357 583.22524371 -260.52993953 567.20762282 -269.71948242 550.18237305 C-270.67984364 548.41898738 -271.67186567 546.67295539 -272.6652832 544.92797852 C-314.35039711 470.23162289 -323.02085381 373.28500408 -299.80639648 262.06860352 C-287.58819999 219.96349698 -267.40978862 181.0394349 -240.72387695 146.33813477 C-239.98524414 145.37649414 -239.24661133 144.41485352 -238.4855957 143.42407227 C-226.72958402 128.47957708 -213.87840023 114.43309156 -200.47387695 100.96313477 C-199.82451172 100.30909668 -199.17514648 99.65505859 -198.50610352 98.98120117 C-194.07508465 94.56480984 -189.46354289 90.41903847 -184.72387695 86.33813477 C-183.67585388 85.41234947 -182.62890468 84.48534648 -181.58325195 83.55688477 C-163.41105858 67.58958807 -143.59081433 53.63092565 -122.68823242 41.48120117 C-121.37177188 40.71514745 -120.05830695 39.94392392 -118.74780273 39.16772461 C-89.50688403 21.9002447 -57.54812728 10.5520075 -24.72387695 2.33813477 C-23.49440338 1.9978978 -22.26492981 1.65766083 -20.99819946 1.30711365 C-14.08365054 -0.20829386 -7.04157777 0.01717964 0 0 Z M-23.72387695 110.33813477 C-24.38693848 110.55518066 -25.05 110.77222656 -25.7331543 110.99584961 C-51.07004548 119.42851664 -74.86252836 132.73975741 -95.72387695 149.33813477 C-96.65458008 150.07676758 -97.5852832 150.81540039 -98.54418945 151.57641602 C-116.36972189 165.95104454 -134.03535244 182.04239605 -147.5012207 200.65795898 C-148.81100479 202.45786594 -150.1550642 204.2284257 -151.50512695 205.99829102 C-157.88696001 214.42787053 -163.54648189 223.12303674 -168.72387695 232.33813477 C-169.12461426 233.04389648 -169.52535156 233.7496582 -169.93823242 234.47680664 C-184.45084288 260.24929877 -193.36876895 288.33373832 -198.72387695 317.33813477 C-198.89048828 318.21775879 -199.05709961 319.09738281 -199.22875977 320.00366211 C-204.78398862 350.94847209 -204.28271613 386.43658003 -198.72387695 417.33813477 C-198.54695313 418.3390918 -198.3700293 419.34004883 -198.18774414 420.37133789 C-193.05225168 448.59437246 -184.21999098 475.00435516 -170.72387695 500.33813477 C-170.38952637 500.97879883 -170.05517578 501.61946289 -169.71069336 502.27954102 C-161.09559871 518.71725598 -150.05864827 533.51013632 -137.72387695 547.33813477 C-137.26770996 547.85069824 -136.81154297 548.36326172 -136.34155273 548.89135742 C-127.67305602 558.58538857 -118.70498153 567.98261725 -108.72387695 576.33813477 C-108.22275391 576.76900391 -107.72163086 577.19987305 -107.20532227 577.64379883 C-52.64293697 624.46103307 15.47572964 645.93912182 87.0612793 640.83422852 C102.72650261 639.52672178 118.02088039 637.1216931 133.27612305 633.33813477 C134.17089355 633.11786621 135.06566406 632.89759766 135.98754883 632.6706543 C155.7021106 627.7014155 174.36345783 619.90015405 192.27612305 610.33813477 C192.92210449 609.9984668 193.56808594 609.65879883 194.23364258 609.30883789 C210.29222526 600.81909248 224.6654556 590.32621213 238.27612305 578.33813477 C238.99928711 577.71422852 239.72245117 577.09032227 240.4675293 576.44750977 C242.41864119 574.76048777 244.34955129 573.05311772 246.27612305 571.33813477 C247.16170898 570.55696289 248.04729492 569.77579102 248.9597168 568.97094727 C253.79814003 564.65116099 258.39596186 560.32551007 262.56518555 555.35375977 C263.73239178 553.97869488 264.93792247 552.63548353 266.17456055 551.32250977 C279.70840932 536.933362 290.59620521 520.48951512 300.27612305 503.33813477 C300.68024414 502.63688477 301.08436523 501.93563477 301.50073242 501.21313477 C315.25497534 477.25264459 323.9585231 450.64753795 329.08862305 423.58813477 C329.28367432 422.56091309 329.47872559 421.53369141 329.6796875 420.4753418 C332.69236439 403.48368468 333.66090253 386.50559379 333.58862305 369.27563477 C333.5864679 368.34136658 333.58431274 367.40709839 333.58209229 366.44451904 C333.52488136 350.90199659 332.84350826 335.69789783 330.27612305 320.33813477 C330.08808105 319.19876465 329.90003906 318.05939453 329.70629883 316.88549805 C322.23444426 273.36803799 304.79183858 231.34126673 276.27612305 197.33813477 C275.39661284 196.26701581 274.51770759 195.19539984 273.6394043 194.12329102 C259.18854671 176.62749755 243.4476024 160.94565824 225.27612305 147.33813477 C224.63578125 146.85731445 223.99543945 146.37649414 223.33569336 145.88110352 C177.74616956 111.95193411 123.13388203 96.13095387 66.65112305 96.08813477 C65.84309235 96.08746002 65.03506165 96.08678528 64.20254517 96.08609009 C34.06883203 96.12573727 4.88148213 100.82394838 -23.72387695 110.33813477 Z " fill="#F7883B" transform="translate(2135.723876953125,-0.338134765625)"/>
<path d="M0 0 C104.61 0 209.22 0 317 0 C317.04033135 112.17044427 317.04033135 112.17044427 317.04882812 159.09570312 C317.05066124 169.1519635 317.05253538 179.20822387 317.05452599 189.26448422 C317.05479584 190.62833382 317.05506421 191.99218343 317.05533109 193.35603303 C317.05958893 215.05284263 317.06708591 236.7496496 317.07629722 258.44645761 C317.08602521 281.40227967 317.09200198 304.35810069 317.09408849 327.31392485 C317.09545633 341.04866391 317.09976671 354.78339542 317.10791647 368.51813216 C317.11322795 377.9537694 317.11479434 387.38940278 317.11350138 396.82504141 C317.11286484 402.25788354 317.11379714 407.69071256 317.11920547 413.12355232 C317.17157755 468.50535987 317.17157755 468.50535987 314.75 489.9375 C314.61996582 491.09241943 314.48993164 492.24733887 314.35595703 493.43725586 C308.91664282 539.19790101 294.41931675 579.33287774 258 609 C223.56789217 636.0824061 179.7466553 644.69673195 136.73291016 640.17724609 C103.13692944 636.15348506 73.63334673 623.35466919 49 600 C47.56333984 598.66001953 47.56333984 598.66001953 46.09765625 597.29296875 C14.42705868 567.18616141 4.21283971 523.25764062 1 481 C0.91762622 479.92660386 0.83525244 478.85320771 0.75038248 477.74728441 C-0.00156976 466.96107246 -0.13864798 456.23208597 -0.12025452 445.42272949 C-0.12069151 443.49088829 -0.12156877 441.55904715 -0.12284368 439.62720633 C-0.12506347 434.36161642 -0.1211021 429.09604712 -0.11606562 423.83045983 C-0.11172491 418.136073 -0.1132101 412.44168722 -0.1139679 406.74729919 C-0.11449084 396.89560168 -0.11136802 387.04391081 -0.10573006 377.19221497 C-0.09758396 362.94852376 -0.09499665 348.70483576 -0.09374207 334.46114248 C-0.09155643 311.3486048 -0.08491822 288.23607089 -0.07543945 265.12353516 C-0.06624539 242.6791994 -0.05918342 220.2348646 -0.05493164 197.79052734 C-0.054661 196.37754659 -0.05439029 194.96456583 -0.05411953 193.55158508 C-0.05203377 182.6107553 -0.05008309 171.6699255 -0.04816496 160.7290957 C-0.03874069 107.15272721 -0.01862015 53.5763676 0 0 Z " fill="#FFFFFF" transform="translate(2772,0)"/>
<path d="M0 0 C36.3 0 72.6 0 110 0 C110.01981934 13.95007324 110.03963867 27.90014648 110.06005859 42.27294922 C110.12495335 86.97766699 110.19948869 131.68236512 110.28005161 176.38705712 C110.29257615 183.33844158 110.30500472 190.28982621 110.31738281 197.24121094 C110.31861614 197.93291305 110.31984946 198.62461517 110.32112016 199.33727796 C110.36096446 221.70887876 110.39448616 244.08048354 110.42468691 266.45209927 C110.45667117 290.11920718 110.49594932 313.78629132 110.54279006 337.45337498 C110.57058275 351.61343244 110.59265546 365.77347456 110.60726251 379.93355186 C110.61785643 389.66169106 110.63573291 399.38980044 110.65916704 409.11791711 C110.67244969 414.71898341 110.68268408 420.32000819 110.68421364 425.92109108 C110.61553819 465.24859409 110.61553819 465.24859409 114.8125 504.3125 C114.98354248 505.37605713 115.15458496 506.43961426 115.33081055 507.53540039 C122.37123006 549.8316129 139.25294502 587.53275632 175.01611328 613.12084961 C213.83234806 639.54370806 261.21120213 644.85916696 306.65576172 636.51220703 C344.64631131 628.96628791 376.37994328 606.38207855 398.23046875 574.7734375 C414.50461582 549.40213665 420.46279476 519.48092053 423.75 489.9375 C423.92341919 488.40041382 423.92341919 488.40041382 424.1003418 486.83227539 C426.67873929 461.33217871 426.1679236 435.56486027 426.20060861 409.9694711 C426.20871399 404.45315054 426.22237576 398.93684316 426.23532104 393.42053223 C426.2569421 383.89148821 426.27513806 374.36244277 426.29092598 364.83338737 C426.31375699 351.0564187 426.34188049 337.2794647 426.37124526 323.50250859 C426.4187603 301.14368748 426.4620756 278.78485993 426.50268555 256.42602539 C426.54211586 234.72224456 426.58355746 213.01846907 426.62768555 191.31469727 C426.62904808 190.6441662 426.63041061 189.97363514 426.63181442 189.28278496 C426.64550132 182.54824201 426.65922872 175.81369915 426.67298577 169.07915634 C426.78811128 112.71944817 426.89563697 56.35972933 427 0 C463.3 0 499.6 0 537 0 C537.06623841 92.88867493 537.06623841 92.88867493 537.08468628 138.84301758 C537.08496239 139.52906587 537.08523851 140.21511416 537.08552299 140.92195179 C537.09151017 155.83515512 537.09705034 170.74835859 537.10213066 185.66156226 C537.10462512 192.97603503 537.10721826 200.29050776 537.10986328 207.60498047 C537.1101248 208.33282033 537.11038632 209.06066019 537.11065576 209.8105558 C537.1191635 233.36019106 537.13417488 256.90981666 537.15259444 280.45944607 C537.17150387 304.67962785 537.18378112 328.89980429 537.18782998 353.11999333 C537.18840621 356.54864384 537.18905748 359.97729433 537.18975449 363.40594482 C537.18988933 364.08068726 537.19002418 364.75542969 537.19016311 365.45061886 C537.19251751 376.26914444 537.20176907 387.08765342 537.21366407 397.90617225 C537.22550164 408.8084501 537.22975952 419.71071089 537.22700275 430.61299485 C537.22572798 436.50951296 537.22761422 442.40598274 537.23841095 448.30249214 C537.31817817 494.1161297 537.31817817 494.1161297 535 513 C534.77679927 514.90568504 534.77679927 514.90568504 534.54908943 516.84986877 C534.19788465 519.68485854 533.78089409 522.49471281 533.3125 525.3125 C533.14443848 526.32771729 532.97637695 527.34293457 532.80322266 528.38891602 C526.66071074 563.63702887 513.96235579 597.25279161 494 627 C493.59813477 627.60005859 493.19626953 628.20011719 492.78222656 628.81835938 C486.49588262 638.10857274 479.4647806 646.63820518 472 655 C471.50741699 655.55574707 471.01483398 656.11149414 470.50732422 656.68408203 C431.41072449 700.63067235 377.95133328 730.04417978 320.125 740.3125 C319.29629395 740.45977539 318.46758789 740.60705078 317.61376953 740.75878906 C301.291938 743.43470462 284.95672603 744.38201735 268.4375 744.3125 C267.07410492 744.30976578 267.07410492 744.30976578 265.6831665 744.30697632 C234.90988003 744.20371477 205.2468664 739.72755271 176 730 C175.00540771 729.67443115 175.00540771 729.67443115 173.99072266 729.34228516 C143.6723741 719.25168104 113.58232196 702.17590445 90.30078125 680.16015625 C88.3140998 678.29490185 86.28861746 676.51084415 84.2265625 674.73046875 C73.56934795 665.43775408 63.57287607 655.24809981 55 644 C54.03655781 642.76554735 53.07300866 641.53117819 52.109375 640.296875 C45.35999007 631.56734278 39.34909652 622.64808997 34 613 C33.5359375 612.17145508 33.071875 611.34291016 32.59375 610.48925781 C9.46592312 568.85615799 -0.19516527 523.06438193 -0.12025452 475.72686768 C-0.12069105 473.6706099 -0.12156747 471.61435217 -0.12284368 469.55809474 C-0.12507246 463.93001918 -0.12108954 458.30196276 -0.11606562 452.67388964 C-0.11173804 446.59633416 -0.11320918 440.51877973 -0.1139679 434.44122314 C-0.11449167 423.91883349 -0.11139522 413.39644933 -0.10573006 402.87406158 C-0.099806 391.84243999 -0.09596269 380.81082087 -0.09487724 369.77919769 C-0.0948085 369.09239457 -0.09473976 368.40559144 -0.09466894 367.6979761 C-0.09433059 364.20982132 -0.09402921 360.72166655 -0.09374207 357.23351178 C-0.09164359 332.54922752 -0.08491165 307.8649465 -0.07543945 283.18066406 C-0.06624997 259.20540382 -0.05916883 235.23014446 -0.05493164 211.25488281 C-0.05480011 210.51540939 -0.05466859 209.77593598 -0.05453308 209.01405427 C-0.05321452 201.58772335 -0.05193871 194.16139243 -0.05069422 186.7350615 C-0.04815824 171.60777777 -0.04533699 156.4804941 -0.04234314 141.35321045 C-0.04220585 140.65773542 -0.04206856 139.9622604 -0.04192711 139.24571037 C-0.03273184 92.83047192 -0.01624518 46.41523663 0 0 Z " fill="#F7883B" transform="translate(2662,0)"/>
<path d="M0 0 C69.63 0 139.26 0 211 0 C211.04026156 78.07088792 211.04026156 78.07088792 211.05130005 102.24465942 C211.05169472 103.10678832 211.05208938 103.96891722 211.05249601 104.85717123 C211.06576049 133.9115245 211.07625581 162.96587809 211.08468628 192.02023315 C211.08496239 192.9693793 211.08523851 193.91852545 211.08552299 194.8964336 C211.09151049 215.52992711 211.09705061 236.16342071 211.10213066 256.79691447 C211.10462507 266.91734404 211.10721821 277.03777359 211.10986328 287.15820312 C211.1101248 288.16524278 211.11038632 289.17228244 211.11065576 290.20983846 C211.11916009 322.77995554 211.13416889 355.35006563 211.15259444 387.92017848 C211.17151352 421.42397531 211.18378333 454.92776827 211.18782998 488.43157034 C211.18840619 493.17686228 211.18905746 497.92215421 211.18975449 502.66744614 C211.18995676 504.06819234 211.18995676 504.06819234 211.19016311 505.49723644 C211.19251545 520.4563314 211.20176136 535.41541432 211.21366407 550.37450439 C211.22551549 565.45763747 211.2299169 580.54075876 211.22700275 595.62389632 C211.2256268 603.77828978 211.22737824 611.93265108 211.23841095 620.08703804 C211.4032071 747.00603184 211.4032071 747.00603184 194 784 C193.71930664 784.5995752 193.43861328 785.19915039 193.14941406 785.81689453 C185.06858747 802.77807923 172.97432805 815.30890946 155.11328125 822.00390625 C135.45907505 828.29226583 113.68538041 828.12820168 94 822 C93.32710938 821.79101074 92.65421875 821.58202148 91.9609375 821.36669922 C82.24464444 818.23657103 73.37032971 813.77779159 64.44921875 808.85546875 C61.15512098 806.95673929 61.15512098 806.95673929 58 806 C57.63841797 806.80050781 57.63841797 806.80050781 57.26953125 807.6171875 C55.65860128 810.64077913 53.69579758 813.35890638 51.6875 816.125 C51.03261597 817.03427246 51.03261597 817.03427246 50.36450195 817.96191406 C48.91241126 819.97660418 47.45620717 821.98828375 46 824 C44.96849465 825.42950328 43.93724984 826.85919459 42.90625 828.2890625 C40.72340755 831.31529109 38.5383048 834.33986956 36.3515625 837.36328125 C34.15548737 840.39993186 31.96278675 843.4389656 29.7734375 846.48046875 C23.48762556 855.20837452 17.15318945 863.89790961 10.75610352 872.54467773 C10.20752686 873.28661377 9.6589502 874.0285498 9.09375 874.79296875 C8.57167969 875.49856934 8.04960937 876.20416992 7.51171875 876.93115234 C6.03382908 878.95370354 4.59309483 880.99895448 3.15625 883.05078125 C2.08890625 884.51064453 2.08890625 884.51064453 1 886 C0.67 886 0.34 886 0 886 C0 593.62 0 301.24 0 0 Z " fill="#FFFFFF" transform="translate(0,0)"/>
<path d="M0 0 C36.3 0 72.6 0 110 0 C110.01620983 31.94773103 110.01620983 31.94773103 110.0222168 44.34350586 C110.02259079 45.11513222 110.02296478 45.88675859 110.0233501 46.68176757 C110.04809638 97.81493317 110.07043733 148.94809858 110.08468628 200.08126831 C110.08510045 201.56373859 110.08510045 201.56373859 110.08552299 203.07615776 C110.09150989 224.5588912 110.0970501 246.04162473 110.10213066 267.5243584 C110.10462516 278.06067255 110.10721829 288.59698667 110.10986328 299.13330078 C110.1101248 300.18174727 110.11038632 301.23019375 110.11065576 302.31041134 C110.11916662 336.24599536 110.13418037 370.18157269 110.15259444 404.11715266 C110.17149503 439.01302298 110.18377908 473.90888961 110.18782998 508.80476497 C110.18840622 513.74235996 110.1890575 518.67995493 110.18975449 523.6175499 C110.18995676 525.07512277 110.18995676 525.07512277 110.19016311 526.56214156 C110.1925194 542.15510274 110.20177612 557.74805243 110.21366407 573.34100894 C110.22548897 589.04683887 110.22992341 604.75265749 110.22700275 620.4584917 C110.22549059 629.77036615 110.22945588 639.08219897 110.24159509 648.39406585 C110.24917453 654.63938854 110.24927229 660.88468443 110.24366363 667.13000908 C110.24068536 670.67247089 110.24059892 674.21485481 110.24976636 677.75730778 C110.30100834 701.82969163 109.44168458 725.9251351 106.25 749.8125 C106.08298584 751.08109863 105.91597168 752.34969727 105.74389648 753.65673828 C104.02051568 766.0023555 101.25302853 777.97832081 98 790 C97.60640574 791.52855187 97.2131484 793.05719056 96.8203125 794.5859375 C89.01204505 823.9278368 73.54733554 850.71098738 52.47900391 872.46972656 C51.45127725 873.53307926 50.43059677 874.60326912 49.41552734 875.67871094 C15.74060959 911.33216682 -30.5196665 928.35983772 -79 930 C-88.42440994 930.16536972 -97.85143172 930.12049748 -107.27694321 930.10139394 C-110.93373169 930.09506782 -114.59052134 930.09454938 -118.24731445 930.09336853 C-125.14581978 930.09028215 -132.04430894 930.08210573 -138.9428072 930.07201904 C-146.80759708 930.06077342 -154.67238781 930.05532633 -162.53718376 930.05032361 C-178.69146525 930.03992032 -194.84573055 930.02237402 -211 930 C-211.15411566 923.93754274 -211.26578392 917.87625048 -211.33988953 911.81228638 C-211.3708128 909.75401928 -211.41289186 907.69588591 -211.46678162 905.63809204 C-211.79690172 892.69887475 -212.03479402 882.69340189 -202.78889465 872.68437195 C-201.52584894 871.41006875 -200.2392151 870.15880689 -198.93261719 868.92919922 C-195.61979061 865.62223161 -193.09053267 861.77740497 -190.4375 857.9375 C-189.36643712 856.44434577 -188.29222735 854.95344371 -187.21484375 853.46484375 C-186.41989502 852.36052002 -186.41989502 852.36052002 -185.60888672 851.23388672 C-182.9098787 847.48640214 -180.20459714 843.74345171 -177.5 840 C-176.42705959 838.51434006 -175.35414297 837.02866294 -174.28125 835.54296875 C-172.01091685 832.39937794 -169.73999652 829.25621222 -167.46875 826.11328125 C-166.59766602 824.90768555 -166.59766602 824.90768555 -165.70898438 823.67773438 C-164.60627308 822.15158194 -163.50341901 820.62553265 -162.40039062 819.09960938 C-159.25284293 814.74301647 -156.12015969 810.37625339 -153 806 C-149.76518286 806.67601533 -147.08714031 807.84300901 -144.140625 809.328125 C-125.42813329 818.61244891 -107.93874776 825.42725531 -86.75 825.3125 C-85.65389404 825.30686035 -84.55778809 825.3012207 -83.4284668 825.29541016 C-62.73312164 824.98682082 -44.72340931 818.69917425 -29.94921875 803.953125 C9.18827715 757.52795745 -0.69295021 674.03118437 -0.683832 617.73059314 C-0.68208157 609.51254638 -0.668608 601.29452763 -0.6549259 593.07649354 C-0.6300033 577.91920596 -0.61401094 562.76192186 -0.60334396 547.60461807 C-0.59277238 532.62555323 -0.57808686 517.64650144 -0.55806351 502.66744614 C-0.55681464 501.73150147 -0.55556577 500.79555681 -0.55427906 499.83125019 C-0.54791415 495.07688013 -0.54147726 490.32251017 -0.53501268 485.56814025 C-0.48950949 452.00799874 -0.45299406 418.44785299 -0.421875 384.88769531 C-0.3916472 352.3111916 -0.35727934 319.73469649 -0.31738281 287.15820312 C-0.31615181 286.15172527 -0.31492081 285.14524741 -0.3136525 284.10827022 C-0.30128425 273.99959393 -0.28883264 263.89091774 -0.27632002 253.78224163 C-0.25083869 233.19490605 -0.22591318 212.60756982 -0.20132446 192.02023315 C-0.20019355 191.07393417 -0.19906264 190.12763519 -0.19789747 189.15266048 C-0.13954234 140.28217446 -0.0894361 91.41168043 -0.04124451 42.54118347 C-0.04056736 41.85455592 -0.03989022 41.16792836 -0.03919255 40.46049391 C-0.02590689 26.97366282 -0.0129885 13.48683139 0 0 Z " fill="#F7883B" transform="translate(211,0)"/>
<path d="M0 0 C1.38017647 0.00225847 2.76036255 0.00098624 4.14053345 -0.00354004 C7.87644417 -0.00583068 11.61029 0.04111763 15.34572172 0.09705162 C19.25337399 0.14714578 23.16107642 0.1517679 27.06900024 0.16125488 C34.46410983 0.18609594 41.85827052 0.25171086 49.25296271 0.3320508 C57.67360532 0.42154642 66.09429385 0.46547486 74.51529384 0.50561428 C91.83317267 0.5891804 109.15012851 0.72984539 126.46728516 0.90820312 C124.70694426 4.55786909 122.53001036 7.76190415 120.15478516 11.03320312 C119.7174707 11.64010986 119.28015625 12.2470166 118.82958984 12.87231445 C117.87787745 14.19230829 116.92486278 15.51136393 115.97070312 16.82958984 C114.44603709 18.93758053 112.92682081 21.0494073 111.40869141 23.16210938 C105.23033572 31.75085495 98.98734373 40.28941202 92.70092773 48.79931641 C86.55855307 57.12256193 80.50961596 65.51219507 74.46728516 73.90820312 C67.26665308 83.9137071 60.02477729 93.8850879 52.70019531 103.80029297 C46.55808882 112.12323062 40.50937832 120.51252528 34.46728516 128.90820312 C27.26665308 138.9137071 20.02477729 148.8850879 12.70019531 158.80029297 C6.55808882 167.12323062 0.50937832 175.51252528 -5.53271484 183.90820312 C-12.73393829 193.91452882 -19.97527383 203.88759818 -27.30200195 213.80249023 C-31.24678526 219.14655929 -35.15233892 224.51721857 -39.03271484 229.90820312 C-43.49292438 236.10474727 -47.99531119 242.26796336 -52.53271484 248.40820312 C-59.26824543 257.52568679 -65.91135122 266.70761082 -72.53271484 275.90820312 C-79.73334692 285.9137071 -86.97522271 295.8850879 -94.29980469 305.80029297 C-100.44191118 314.12323062 -106.49062168 322.51252528 -112.53271484 330.90820312 C-119.97623288 341.25120475 -127.45848915 351.56215659 -135.0402832 361.80444336 C-135.59852783 362.55927002 -136.15677246 363.31409668 -136.73193359 364.09179688 C-137.47189575 365.0903772 -137.47189575 365.0903772 -138.22680664 366.10913086 C-141.69541885 370.88763214 -141.81798497 374.2749494 -141.79442787 380.02307415 C-141.79842393 380.97202495 -141.80242 381.92097574 -141.80653715 382.89868262 C-141.8175889 386.10875079 -141.81429927 389.3186488 -141.81118774 392.5287323 C-141.81618621 394.84121167 -141.82206067 397.15368929 -141.82874048 399.46616441 C-141.84294202 405.17432413 -141.84782093 410.8824398 -141.84886658 416.59061585 C-141.8506433 423.4250224 -141.86398733 430.25939355 -141.87778895 437.09378465 C-141.90293692 449.70755455 -141.91878403 462.32132025 -141.92937088 474.93511009 C-141.93988679 487.42833551 -141.95451175 499.92154492 -141.97465134 512.41475868 C-141.9759002 513.19090666 -141.97714907 513.96705464 -141.97843578 514.76672225 C-141.98479934 518.70822062 -141.99123657 522.64971887 -141.99770217 526.59121708 C-142.04339173 554.52491437 -142.07982785 582.45861686 -142.11083984 610.39233398 C-142.14099285 637.53329224 -142.17532628 664.67423994 -142.21533203 691.81518555 C-142.21656303 692.65146228 -142.21779404 693.48773901 -142.21906235 694.34935746 C-142.23142896 702.74742268 -142.24388071 711.14548776 -142.25639483 719.54355276 C-142.28188668 736.65210676 -142.30681027 753.76066158 -142.33139038 770.86921692 C-142.33308674 772.04920981 -142.33308674 772.04920981 -142.33481738 773.25304094 C-142.36945831 797.37012231 -142.40169021 821.48720606 -142.43154907 845.60429382 C-142.43282232 846.63156695 -142.43282232 846.63156695 -142.43412129 847.67959306 C-142.4684706 875.42246131 -142.50027244 903.1653326 -142.53271484 930.90820312 C-180.15271484 930.90820312 -217.77271484 930.90820312 -256.53271484 930.90820312 C-256.73402266 861.78653164 -256.73402266 861.78653164 -256.78921509 840.39767456 C-256.79118842 839.63485668 -256.79316176 838.87203879 -256.7951949 838.08610522 C-256.86145364 812.40362484 -256.91395711 786.72113553 -256.95614624 761.03860474 C-256.95752681 760.20033396 -256.95890738 759.36206318 -256.96032979 758.49839026 C-256.99026006 740.27975826 -257.01796171 722.06112351 -257.04336814 703.84248465 C-257.05584132 694.90784723 -257.06880688 685.97321055 -257.08203125 677.03857422 C-257.08333884 676.1494786 -257.08464643 675.26038298 -257.08599365 674.34434507 C-257.12859417 645.53501848 -257.20369742 616.72588824 -257.29568705 587.91668057 C-257.39006001 558.3072325 -257.45158013 528.69789307 -257.47186474 499.08829715 C-257.47474622 494.90451803 -257.47800259 490.72073927 -257.48148727 486.5369606 C-257.4821615 485.71354684 -257.48283573 484.89013307 -257.4835304 484.04176738 C-257.49533979 470.79611207 -257.54169885 457.55079303 -257.60103518 444.30527476 C-257.65997394 430.98345645 -257.68237828 417.66197091 -257.66772862 404.34002684 C-257.66013244 396.4284925 -257.68030876 388.51817773 -257.74069027 380.60686402 C-257.78273742 374.69272748 -257.77225806 368.77942849 -257.74170379 362.86519648 C-257.73748467 360.47731223 -257.75011911 358.08932449 -257.78154667 355.70164333 C-257.96476448 340.91929398 -256.72420979 331.88531701 -246.53271484 320.90820312 C-245.39914896 319.38028398 -244.28319289 317.83868698 -243.20458984 316.27148438 C-242.231249 314.92077877 -241.25729125 313.5705175 -240.28271484 312.22070312 C-239.74388672 311.47433594 -239.20505859 310.72796875 -238.64990234 309.95898438 C-234.06157904 303.61568026 -229.4180108 297.31402048 -224.76635742 291.01708984 C-218.62398276 282.69384432 -212.57504565 274.30421118 -206.53271484 265.90820312 C-199.33208276 255.90269915 -192.09020698 245.93131835 -184.765625 236.01611328 C-178.62351851 227.69317563 -172.57480801 219.30388097 -166.53271484 210.90820312 C-159.3314914 200.90187743 -152.09015586 190.92880807 -144.76342773 181.01391602 C-140.81864443 175.66984696 -136.91309076 170.29918768 -133.03271484 164.90820312 C-128.57250531 158.71165898 -124.0701185 152.54844289 -119.53271484 146.40820312 C-112.79718426 137.29071946 -106.15407847 128.10879543 -99.53271484 118.90820312 C-92.33208276 108.90269915 -85.09020698 98.93131835 -77.765625 89.01611328 C-71.62351851 80.69317563 -65.57480801 72.30388097 -59.53271484 63.90820312 C-52.337316 53.90997089 -45.10257527 43.94439895 -37.78100586 34.03808594 C-33.13140926 27.73993107 -28.53661103 21.40362857 -23.97021484 15.04492188 C-23.47521484 14.3565625 -22.98021484 13.66820312 -22.47021484 12.95898438 C-22.04611328 12.36770752 -21.62201172 11.77643066 -21.18505859 11.16723633 C-20.63978516 10.42175537 -20.09451172 9.67627441 -19.53271484 8.90820312 C-19.20334112 8.26843883 -18.8739674 7.62867453 -18.53461266 6.96952343 C-13.99106187 -0.77186754 -8.34840388 -0.18649522 0 0 Z " fill="#F7883B" transform="translate(1774.53271484375,-0.908203125)"/>
<path d="M0 0 C18.11530377 -0.23382486 36.23021483 -0.41005069 54.34670258 -0.51812172 C62.75899259 -0.56964004 71.17034388 -0.639847 79.58203125 -0.75439453 C86.91558675 -0.85421264 94.24846236 -0.91861551 101.58267832 -0.94088495 C105.46488545 -0.95389946 109.34514801 -0.98437452 113.22673035 -1.05730057 C116.88485209 -1.12546787 120.54023989 -1.14606292 124.19893646 -1.13107681 C126.17299907 -1.13511632 128.14676724 -1.18879051 130.12005615 -1.24420166 C138.66839263 -1.14536817 138.66839263 -1.14536817 142.53775024 2.18281937 C144.57708237 4.70248361 146.3146655 7.23460267 148 10 C148.82737861 11.14262232 149.66324884 12.27920078 150.51171875 13.40625 C151.22972656 14.4271875 151.94773437 15.448125 152.6875 16.5 C153.53989022 17.70476284 154.3927805 18.909172 155.24609375 20.11328125 C155.69065918 20.74186035 156.13522461 21.37043945 156.59326172 22.01806641 C159.12702546 25.58785017 161.68770337 29.13816482 164.25 32.6875 C164.79269531 33.4393457 165.33539062 34.19119141 165.89453125 34.96582031 C169.95895308 40.58526335 174.06610778 46.17225178 178.1875 51.75 C183.00392343 58.26869503 187.76022906 64.8244824 192.45703125 71.4296875 C200.44845775 82.66515843 208.57422395 93.80144428 216.76635742 104.89111328 C223.45240175 113.95106021 230.02736019 123.09036112 236.60449219 132.22949219 C242.75329179 140.77052993 248.93305997 149.28591764 255.1875 157.75 C260.00394216 164.26868079 264.76022935 170.8244828 269.45703125 177.4296875 C277.44845775 188.66515843 285.57422395 199.80144428 293.76635742 210.89111328 C300.45240175 219.95106021 307.02736019 229.09036112 313.60449219 238.22949219 C319.75329179 246.77052993 325.93305997 255.28591764 332.1875 263.75 C337.00394216 270.26868079 341.76022935 276.8244828 346.45703125 283.4296875 C360.77149129 305.44981506 360.77149129 305.44981506 377.45900977 325.3974185 C383.70797293 332.06238879 382.81899931 340.04398424 382.7215271 348.60314941 C382.72414503 350.30947746 382.72940124 352.01580314 382.7370621 353.72211599 C382.75046091 358.40179995 382.72650352 363.08065799 382.69639373 367.76023674 C382.67046492 372.80990411 382.67925247 377.85952551 382.68380737 382.90924072 C382.68695236 391.65512614 382.66813934 400.40074284 382.63438034 409.14656067 C382.58560256 421.79147303 382.56999006 434.43625555 382.56245239 447.0812518 C382.54932305 467.59721026 382.50939994 488.11302553 382.45263672 508.62890625 C382.39755635 528.55728438 382.35508882 548.48562361 382.32958984 568.4140625 C382.32722533 570.25687309 382.32722533 570.25687309 382.32481305 572.13691217 C382.31698279 578.3001842 382.30940055 584.46345652 382.30194163 590.62672901 C382.23974882 641.75127986 382.12914224 692.87556583 382 744 C344.71 744 307.42 744 269 744 C269.03778564 732.76469238 269.07557129 721.52938477 269.11450195 709.95361328 C269.22635465 673.96341051 269.27407463 637.97337662 269.28166701 601.98300684 C269.28290585 596.38824785 269.28471058 590.79348918 269.28686523 585.19873047 C269.28728466 584.08496213 269.28770408 582.97119379 269.28813621 581.8236749 C269.29626653 563.81343713 269.35019147 545.80361492 269.42118094 527.79352774 C269.49305304 509.29956256 269.51538647 490.80601069 269.49218339 472.31191814 C269.47942488 460.90899504 269.50483905 449.50749077 269.57981863 438.10480152 C269.62759608 430.27475555 269.62704963 422.44561957 269.58934812 414.61552288 C269.56902675 410.1040958 269.56919835 405.59526193 269.62704659 401.08410263 C270.2904048 376.20472427 270.2904048 376.20472427 258.16705608 355.17442131 C257.61925908 354.63137124 257.07146209 354.08832117 256.50706518 353.52881503 C254.44842364 351.44046333 252.79520634 349.12260017 251.125 346.71875 C250.08401252 345.31199715 249.04236568 343.90573194 248 342.5 C240.71884324 332.64722235 233.55167757 322.71423 226.39550781 312.77050781 C220.3076125 304.31406964 214.19131259 295.88111091 208 287.5 C201.80988881 279.12051542 195.69525691 270.68892637 189.60888672 262.23388672 C186.90987882 258.48640231 184.20468506 254.74338799 181.5 251 C178.25868547 246.51389621 175.01858046 242.02695169 171.78515625 237.53515625 C166.23195376 229.82537027 160.64562795 222.14242369 155 214.5 C147.72057378 204.64592179 140.55169676 194.71425666 133.39550781 184.77050781 C127.3076125 176.31406964 121.19131259 167.88111091 115 159.5 C108.80988881 151.12051542 102.69525691 142.68892637 96.60888672 134.23388672 C93.90987882 130.48640231 91.20468506 126.74338799 88.5 123 C85.25868547 118.51389621 82.01858046 114.02695169 78.78515625 109.53515625 C73.23195376 101.82537027 67.64562795 94.14242369 62 86.5 C54.72057378 76.64592179 47.55169676 66.71425666 40.39550781 56.77050781 C34.30760868 48.31406434 28.19095002 39.88138301 22 31.5 C17.22893271 25.03610271 12.47160377 18.5626451 7.75 12.0625 C7.20085937 11.31097656 6.65171875 10.55945312 6.0859375 9.78515625 C5.57804687 9.08390625 5.07015625 8.38265625 4.546875 7.66015625 C4.10182617 7.04793213 3.65677734 6.43570801 3.19824219 5.80493164 C1.95566558 3.93321834 0.98789251 2.01526617 0 0 Z " fill="#F7883B" transform="translate(1082,0)"/>
<path d="M0 0 C28.38 0 56.76 0 86 0 C86 25.74 86 51.48 86 78 C81.05 78 76.1 78 71 78 C71 59.19 71 40.38 71 21 C64.73 39.81 58.46 58.62 52 78 C46.06 78 40.12 78 34 78 C28.06 58.86 22.12 39.72 16 20 C16 39.14 16 58.28 16 78 C10.72 78 5.44 78 0 78 C0 52.26 0 26.52 0 0 Z " fill="#F7883B" transform="translate(3350,0)"/>
<path d="M0 0 C21.12 0 42.24 0 64 0 C64 3.3 64 6.6 64 10 C56.41 10 48.82 10 41 10 C41 32.44 41 54.88 41 78 C35.06 78 29.12 78 23 78 C23 55.56 23 33.12 23 10 C15.41 10 7.82 10 0 10 C0 6.7 0 3.4 0 0 Z " fill="#F7883B" transform="translate(3280,0)"/>
<path d="M0 0 C2.743125 1.32 5.48625 2.64 8.3125 4 C42.18739084 20.07592138 76.41996555 29.97440949 114 32 C114 32.33 114 32.66 114 33 C76.38 33 38.76 33 0 33 C0 22.11 0 11.22 0 0 Z " fill="#FFFFFF" transform="translate(0,897)"/>
<path d="M0 0 C11.88 0 23.76 0 36 0 C34.03927845 7.8428862 32.00886017 15.39432522 29.42578125 23.015625 C29.09708542 23.99746765 28.76838959 24.9793103 28.42973328 25.99090576 C27.39493201 29.07872576 26.35384221 32.16438055 25.3125 35.25 C24.60309557 37.36314028 23.8941076 39.47642042 23.18554688 41.58984375 C21.46183294 46.728186 19.73297285 51.86477352 18 57 C16.11594404 54.17391606 15.2887769 52.123724 14.30419922 48.91772461 C13.98401825 47.88332748 13.66383728 46.84893036 13.33395386 45.78318787 C12.82446701 44.10967003 12.82446701 44.10967003 12.3046875 42.40234375 C11.95238068 41.2571376 11.60007385 40.11193146 11.23709106 38.93202209 C10.49344561 36.5109825 9.75220502 34.08920312 9.01318359 31.66674805 C7.87796666 27.94722023 6.73451854 24.2302986 5.58984375 20.51367188 C4.86930316 18.16421226 4.14923492 15.81460772 3.4296875 13.46484375 C3.08598114 12.34714096 2.74227478 11.22943817 2.38815308 10.0778656 C2.07427643 9.04662064 1.76039978 8.01537567 1.43701172 6.95288086 C1.15880585 6.04259628 0.88059998 5.13231171 0.59396362 4.19444275 C0 2 0 2 0 0 Z " fill="#FFFFFF" transform="translate(3376,0)"/>
</svg>
